<svg width="48" height="49" viewBox="0 0 48 49" fill="none" xmlns="http://www.w3.org/2000/svg">
<path d="M24 42.125C14.335 42.125 6.5 34.29 6.5 24.625C6.5 14.96 14.335 7.125 24 7.125C33.665 7.125 41.5 14.96 41.5 24.625C41.5 34.29 33.665 42.125 24 42.125ZM24 44.625C35.0457 44.625 44 35.6707 44 24.625C44 13.5793 35.0457 4.625 24 4.625C12.9543 4.625 4 13.5793 4 24.625C4 35.6707 12.9543 44.625 24 44.625Z" fill="white"/>
<path d="M24 14.625C24.6904 14.625 25.25 15.1846 25.25 15.875V23.375H32.75C33.4404 23.375 34 23.9346 34 24.625C34 25.3154 33.4404 25.875 32.75 25.875H25.25V33.375C25.25 34.0654 24.6904 34.625 24 34.625C23.3096 34.625 22.75 34.0654 22.75 33.375V25.875H15.25C14.5596 25.875 14 25.3154 14 24.625C14 23.9346 14.5596 23.375 15.25 23.375H22.75V15.875C22.75 15.1846 23.3096 14.625 24 14.625Z" fill="white"/>
</svg>
