<svg width="40" height="41" viewBox="0 0 40 41" fill="none" xmlns="http://www.w3.org/2000/svg">
<path d="M32 17.5888C32 16.7219 31.2646 16.0192 30.3574 16.0192C29.4502 16.0192 28.7148 16.7219 28.7148 17.5888V21.5349C28.7148 23.465 26.2501 24.4071 24.8571 23.0094L10.8916 8.99736C10.2307 8.33421 9.1236 8.33421 8.46266 8.99736C7.84578 9.6163 7.84578 10.5889 8.46266 11.2079L22.7982 25.5913C24.1549 26.9525 23.1451 29.2038 21.178 29.2038H17.2988C16.3462 29.2038 15.5741 29.9417 15.5741 30.8519C15.5741 31.7621 16.3462 32.5 17.2988 32.5H29.7625C30.9982 32.5 32 31.5428 32 30.362V17.5888Z" fill="#80C5A7"/>
<rect x="1.5" y="2" width="37" height="37" rx="2.5" stroke="#80C5A7" stroke-width="3"/>
</svg>
