<svg width="16" height="12" viewBox="0 0 16 12" fill="none" xmlns="http://www.w3.org/2000/svg">
<path d="M0.5 1.5C0.5 1.08579 0.835786 0.75 1.25 0.75H14.75C15.1642 0.75 15.5 1.08579 15.5 1.5C15.5 1.91421 15.1642 2.25 14.75 2.25L1.25 2.25C0.835786 2.25 0.5 1.91421 0.5 1.5Z" fill="#0E0E0E"/>
<path d="M0.5 6C0.5 5.58579 0.835786 5.25 1.25 5.25L14.75 5.25C15.1642 5.25 15.5 5.58579 15.5 6C15.5 6.41422 15.1642 6.75 14.75 6.75L1.25 6.75C0.835786 6.75 0.5 6.41421 0.5 6Z" fill="#0E0E0E"/>
<path d="M1.25 9.75C0.835786 9.75 0.5 10.0858 0.5 10.5C0.5 10.9142 0.835786 11.25 1.25 11.25L14.75 11.25C15.1642 11.25 15.5 10.9142 15.5 10.5C15.5 10.0858 15.1642 9.75 14.75 9.75L1.25 9.75Z" fill="#0E0E0E"/>
</svg>
