<svg width="21" height="21" viewBox="0 0 21 21" fill="none" xmlns="http://www.w3.org/2000/svg">
<path fill-rule="evenodd" clip-rule="evenodd" d="M0.5 10.625C0.5 5.10215 4.97715 0.625 10.5 0.625C16.0228 0.625 20.5 5.10215 20.5 10.625C20.5 16.1478 16.0228 20.625 10.5 20.625C4.97715 20.625 0.5 16.1478 0.5 10.625ZM4.10736 5.51801C2.9877 6.91771 2.31818 8.69317 2.31818 10.625C2.31818 12.5568 2.9877 14.3323 4.10736 15.732L6.05387 13.7855C5.4189 12.8938 5.04545 11.803 5.04545 10.625C5.04545 9.44697 5.4189 8.35617 6.05387 7.46451L4.10736 5.51801ZM5.39301 4.23236L7.33951 6.17887C8.23117 5.5439 9.32197 5.17045 10.5 5.17045C11.678 5.17045 12.7688 5.5439 13.6605 6.17887L15.607 4.23236C14.2073 3.1127 12.4318 2.44318 10.5 2.44318C8.56817 2.44318 6.79271 3.1127 5.39301 4.23236ZM16.8926 5.51801L14.9461 7.46451C15.5811 8.35617 15.9545 9.44697 15.9545 10.625C15.9545 11.803 15.5811 12.8938 14.9461 13.7855L16.8926 15.732C18.0123 14.3323 18.6818 12.5568 18.6818 10.625C18.6818 8.69317 18.0123 6.91771 16.8926 5.51801ZM15.607 17.0176L13.6605 15.0711C12.7688 15.7061 11.678 16.0795 10.5 16.0795C9.32197 16.0795 8.23117 15.7061 7.33951 15.0711L5.39301 17.0176C6.79271 18.1373 8.56817 18.8068 10.5 18.8068C12.4318 18.8068 14.2073 18.1373 15.607 17.0176ZM10.5 6.98864C8.49169 6.98864 6.86364 8.61669 6.86364 10.625C6.86364 12.6333 8.49169 14.2614 10.5 14.2614C12.5083 14.2614 14.1364 12.6333 14.1364 10.625C14.1364 8.61669 12.5083 6.98864 10.5 6.98864Z" fill="#0E0E0E"/>
</svg>
