<svg width="32" height="33" viewBox="0 0 32 33" fill="none" xmlns="http://www.w3.org/2000/svg">
<path d="M16 30.625C8.26801 30.625 2 24.357 2 16.625C2 8.89301 8.26801 2.625 16 2.625C23.732 2.625 30 8.89301 30 16.625C30 24.357 23.732 30.625 16 30.625ZM16 32.625C24.8366 32.625 32 25.4616 32 16.625C32 7.78844 24.8366 0.625 16 0.625C7.16344 0.625 0 7.78844 0 16.625C0 25.4616 7.16344 32.625 16 32.625Z" fill="white"/>
<path d="M17.8614 13.8008L13.2794 14.375L13.1153 15.1367L14.0177 15.3008C14.6036 15.4414 14.7208 15.6523 14.5919 16.2383L13.1153 23.1758C12.7286 24.9688 13.3263 25.8125 14.7325 25.8125C15.8223 25.8125 17.088 25.3086 17.6622 24.6172L17.838 23.7852C17.4395 24.1367 16.8536 24.2773 16.4669 24.2773C15.9161 24.2773 15.7169 23.8906 15.8575 23.2109L17.8614 13.8008Z" fill="white"/>
<path d="M18 9.625C18 10.7296 17.1046 11.625 16 11.625C14.8954 11.625 14 10.7296 14 9.625C14 8.52043 14.8954 7.625 16 7.625C17.1046 7.625 18 8.52043 18 9.625Z" fill="white"/>
</svg>
