<svg width="32" height="33" viewBox="0 0 32 33" fill="none" xmlns="http://www.w3.org/2000/svg">
<path d="M32 16.625C32 25.4616 24.8366 32.625 16 32.625C7.16344 32.625 0 25.4616 0 16.625C0 7.78844 7.16344 0.625 16 0.625C24.8366 0.625 32 7.78844 32 16.625ZM17 9.625C17 9.07271 16.5523 8.625 16 8.625C15.4477 8.625 15 9.07271 15 9.625V15.625H9C8.44771 15.625 8 16.0727 8 16.625C8 17.1773 8.44771 17.625 9 17.625H15V23.625C15 24.1773 15.4477 24.625 16 24.625C16.5523 24.625 17 24.1773 17 23.625V17.625H23C23.5523 17.625 24 17.1773 24 16.625C24 16.0727 23.5523 15.625 23 15.625H17V9.625Z" fill="white"/>
</svg>
