<svg width="24" height="25" viewBox="0 0 24 25" fill="none" xmlns="http://www.w3.org/2000/svg">
<path fill-rule="evenodd" clip-rule="evenodd" d="M11 4.625C7.13401 4.625 4 7.75901 4 11.625C4 15.491 7.13401 18.625 11 18.625C12.8859 18.625 14.5977 17.8792 15.8564 16.6664C15.8827 16.6322 15.9115 16.5992 15.9429 16.5679C15.9742 16.5365 16.0072 16.5077 16.0414 16.4814C17.2542 15.2227 18 13.5109 18 11.625C18 7.75901 14.866 4.625 11 4.625ZM18.0319 17.2427C19.2635 15.703 20 13.75 20 11.625C20 6.65444 15.9706 2.625 11 2.625C6.02944 2.625 2 6.65444 2 11.625C2 16.5956 6.02944 20.625 11 20.625C13.125 20.625 15.078 19.8885 16.6177 18.6569L20.2929 22.3321C20.6834 22.7226 21.3166 22.7226 21.7071 22.3321C22.0976 21.9416 22.0976 21.3084 21.7071 20.9179L18.0319 17.2427ZM11 7.625C11.5523 7.625 12 8.07272 12 8.625V10.625H14C14.5523 10.625 15 11.0727 15 11.625C15 12.1773 14.5523 12.625 14 12.625H12V14.625C12 15.1773 11.5523 15.625 11 15.625C10.4477 15.625 10 15.1773 10 14.625V12.625H8C7.44772 12.625 7 12.1773 7 11.625C7 11.0727 7.44772 10.625 8 10.625H10V8.625C10 8.07272 10.4477 7.625 11 7.625Z" fill="#0E0E0E"/>
</svg>
