<svg width="24" height="24" viewBox="0 0 24 24" fill="none" xmlns="http://www.w3.org/2000/svg">
<path fill-rule="evenodd" clip-rule="evenodd" d="M2 12C2 6.47715 6.47715 2 12 2C17.5228 2 22 6.47715 22 12C22 17.5228 17.5228 22 12 22C6.47715 22 2 17.5228 2 12ZM5.60736 6.89301C4.4877 8.29271 3.81818 10.0682 3.81818 12C3.81818 13.9318 4.4877 15.7073 5.60736 17.107L7.55387 15.1605C6.9189 14.2688 6.54545 13.178 6.54545 12C6.54545 10.822 6.9189 9.73117 7.55387 8.83951L5.60736 6.89301ZM6.89301 5.60736L8.83951 7.55387C9.73117 6.9189 10.822 6.54545 12 6.54545C13.178 6.54545 14.2688 6.9189 15.1605 7.55387L17.107 5.60736C15.7073 4.4877 13.9318 3.81818 12 3.81818C10.0682 3.81818 8.29271 4.4877 6.89301 5.60736ZM18.3926 6.89301L16.4461 8.83951C17.0811 9.73117 17.4545 10.822 17.4545 12C17.4545 13.178 17.0811 14.2688 16.4461 15.1605L18.3926 17.107C19.5123 15.7073 20.1818 13.9318 20.1818 12C20.1818 10.0682 19.5123 8.29271 18.3926 6.89301ZM17.107 18.3926L15.1605 16.4461C14.2688 17.0811 13.178 17.4545 12 17.4545C10.822 17.4545 9.73117 17.0811 8.83951 16.4461L6.89301 18.3926C8.29271 19.5123 10.0682 20.1818 12 20.1818C13.9318 20.1818 15.7073 19.5123 17.107 18.3926ZM12 8.36364C9.99169 8.36364 8.36364 9.99169 8.36364 12C8.36364 14.0083 9.99169 15.6364 12 15.6364C14.0083 15.6364 15.6364 14.0083 15.6364 12C15.6364 9.99169 14.0083 8.36364 12 8.36364Z" fill="white"/>
</svg>
