<svg width="40" height="41" viewBox="0 0 40 41" fill="none" xmlns="http://www.w3.org/2000/svg">
<path d="M20 38.125C10.335 38.125 2.5 30.29 2.5 20.625C2.5 10.96 10.335 3.125 20 3.125C29.665 3.125 37.5 10.96 37.5 20.625C37.5 30.29 29.665 38.125 20 38.125ZM20 40.625C31.0457 40.625 40 31.6707 40 20.625C40 9.57931 31.0457 0.625 20 0.625C8.95431 0.625 0 9.57931 0 20.625C0 31.6707 8.95431 40.625 20 40.625Z" fill="white"/>
<path d="M20 10.625C20.6904 10.625 21.25 11.1846 21.25 11.875V19.375H28.75C29.4404 19.375 30 19.9346 30 20.625C30 21.3154 29.4404 21.875 28.75 21.875H21.25V29.375C21.25 30.0654 20.6904 30.625 20 30.625C19.3096 30.625 18.75 30.0654 18.75 29.375V21.875H11.25C10.5596 21.875 10 21.3154 10 20.625C10 19.9346 10.5596 19.375 11.25 19.375H18.75V11.875C18.75 11.1846 19.3096 10.625 20 10.625Z" fill="white"/>
</svg>
