<svg width="208" height="94" viewBox="0 0 208 94" fill="none" xmlns="http://www.w3.org/2000/svg">
<path d="M101.64 56.6035H103.816L100.264 78.1075H97.544C96.136 69.8302 95.3467 65.0942 95.176 63.8995C95.0267 62.6835 94.888 61.4355 94.76 60.1555C94.5467 62.4809 94.2267 64.8809 93.8 67.3555L91.976 78.1075H89.192L85.672 56.6035H87.848L89.96 69.4355L90.728 75.1315C90.9627 73.2115 91.2293 71.3022 91.528 69.4035L93.576 56.6035H95.912L97.96 69.4355L98.76 75.0675C99.0373 72.8275 99.2933 70.9502 99.528 69.4355L101.64 56.6035ZM106.388 73.4675V64.5715C106.388 63.0569 106.815 61.8515 107.668 60.9555C108.543 60.0382 109.855 59.5795 111.604 59.5795C113.353 59.5795 114.644 60.0382 115.476 60.9555C116.329 61.8515 116.756 63.0569 116.756 64.5715V70.1395H108.628V73.3715C108.628 74.3315 108.927 75.0462 109.524 75.5155C110.121 75.9849 111.049 76.2195 112.308 76.2195C113.567 76.2195 114.868 76.0275 116.212 75.6435V77.7555C115.145 78.0969 113.876 78.2675 112.404 78.2675C108.393 78.2675 106.388 76.6675 106.388 73.4675ZM108.628 68.2515H114.58V64.5715C114.58 62.5662 113.588 61.5635 111.604 61.5635C109.62 61.5635 108.628 62.5662 108.628 64.5715V68.2515ZM128.582 64.2835C128.582 62.7262 127.803 61.9475 126.246 61.9475C125.392 61.9475 124.283 62.2035 122.918 62.7155V76.0275H125.574C127.579 76.0275 128.582 75.0889 128.582 73.2115V64.2835ZM120.646 55.0675H122.886V60.6035C124.166 60.0702 125.435 59.8035 126.694 59.8035C127.952 59.8035 128.966 60.1769 129.734 60.9235C130.502 61.6702 130.886 62.7155 130.886 64.0595V73.3715C130.886 74.8862 130.448 76.0595 129.574 76.8915C128.72 77.7022 127.568 78.1075 126.118 78.1075H120.646V55.0675Z" fill="#EFDD3B"/>
<path d="M150.094 56.6035V78.1075H147.918V66.7795C147.918 64.5822 147.982 62.4595 148.11 60.4115L143.726 72.3795H141.326L136.878 60.4115C137.027 62.3955 137.102 64.5075 137.102 66.7475V78.1075H134.958V56.6035H137.646L142.51 70.0755L147.374 56.6035H150.094ZM155.545 72.9235V73.8835C155.545 74.7369 155.747 75.3662 156.153 75.7715C156.558 76.1769 157.326 76.3795 158.457 76.3795C159.587 76.3795 160.654 75.9635 161.657 75.1315V69.1475L158.009 70.1715C157.049 70.4489 156.398 70.7902 156.057 71.1955C155.715 71.6009 155.545 72.1769 155.545 72.9235ZM158.425 59.7395C162.051 59.7395 163.865 61.2862 163.865 64.3795V78.1075H161.689V76.7955C160.601 77.7555 159.299 78.2355 157.785 78.2355C154.819 78.2355 153.337 76.7742 153.337 73.8515V72.8275C153.337 70.6089 154.627 69.1369 157.209 68.4115L161.689 67.1635V64.3795C161.667 63.5049 161.422 62.8649 160.953 62.4595C160.483 62.0542 159.534 61.8515 158.105 61.8515C156.697 61.8515 155.395 62.0649 154.201 62.4915V60.3475C155.417 59.9422 156.825 59.7395 158.425 59.7395ZM174.002 59.8035H174.802V61.9795H173.714C172.946 61.9795 172.253 62.1822 171.634 62.5875C171.442 62.7155 171.026 63.0035 170.386 63.4515V78.1075H168.114V59.8995H170.29V61.2755C170.354 61.2329 170.514 61.1155 170.77 60.9235C171.048 60.7315 171.208 60.6249 171.25 60.6035C171.314 60.5609 171.453 60.4755 171.666 60.3475C171.901 60.2195 172.072 60.1449 172.178 60.1235C172.306 60.0809 172.477 60.0275 172.69 59.9635C173.01 59.8569 173.448 59.8035 174.002 59.8035ZM184.473 59.8995H186.777L182.745 78.1075H179.545L175.513 59.8995H177.849L179.609 68.2515L181.177 76.5075C181.817 72.9662 182.915 67.4302 184.473 59.8995ZM189.201 73.4675V64.5715C189.201 63.0569 189.627 61.8515 190.481 60.9555C191.355 60.0382 192.667 59.5795 194.417 59.5795C196.166 59.5795 197.457 60.0382 198.289 60.9555C199.142 61.8515 199.569 63.0569 199.569 64.5715V70.1395H191.441V73.3715C191.441 74.3315 191.739 75.0462 192.337 75.5155C192.934 75.9849 193.862 76.2195 195.121 76.2195C196.379 76.2195 197.681 76.0275 199.025 75.6435V77.7555C197.958 78.0969 196.689 78.2675 195.217 78.2675C191.206 78.2675 189.201 76.6675 189.201 73.4675ZM191.441 68.2515H197.393V64.5715C197.393 62.5662 196.401 61.5635 194.417 61.5635C192.433 61.5635 191.441 62.5662 191.441 64.5715V68.2515ZM203.458 55.0675H205.73V78.1075H203.458V55.0675Z" fill="#6FBDD6"/>
<path d="M28.2308 45.9949L19.6211 41.2132C17.6577 40.1227 15.5782 39.2557 13.4217 38.6283L10.4362 37.7598C9.68764 37.542 8.91199 37.4315 8.13241 37.4315H7.55805C6.63501 37.4315 5.72505 37.6498 4.90248 38.0686L4.43264 38.3078C4.18007 38.4364 3.95002 38.605 3.75143 38.8072V38.8072C3.26983 39.2976 3 39.9574 3 40.6447V41.6203C3 42.3857 3.17541 43.1408 3.51275 43.8278L4.05128 44.9245L8.25641 52.4174L12.2982 58.5905C12.4068 58.7564 12.5315 58.9112 12.6704 59.0526L14.0348 60.4418C15.4046 61.8366 14.4165 64.1921 12.4615 64.1921V64.1921H11.2571C9.33766 64.1921 7.49878 64.9635 6.15385 66.3329V66.3329L6.12157 66.3658C4.83462 67.6762 4.31785 69.5594 4.7558 71.3431V71.3431C4.98278 72.2676 5.45456 73.1138 6.12156 73.793L6.66485 74.3462C7.70593 75.4062 9.01774 76.1605 10.4576 76.527L11.1602 76.7059C12.0244 76.9259 12.9126 77.0371 13.8044 77.0371H15.3745C16.9328 77.0371 18.4873 76.8805 20.0143 76.5695L22.6463 76.0335C22.8645 75.9891 23.0782 75.9244 23.2844 75.8404L27.5481 74.1039C27.8741 73.9711 28.2308 74.211 28.2308 74.563V74.563C28.2308 74.7645 28.3528 74.946 28.5395 75.022L32.8473 76.7765C33.273 76.9499 33.7138 77.0833 34.1642 77.175L36.0127 77.5514C37.8287 77.9212 39.6773 78.1076 41.5305 78.1076H45.0513H46.6403C49.7421 78.1076 52.7999 77.374 55.5641 75.9667V75.9667L59.658 73.8825C63.898 71.7239 67.6849 68.7727 70.8139 65.1885V65.1885C73.2491 62.399 75.2546 59.2617 76.7641 55.8804L77.7815 53.6014C79.0861 50.6789 80.0875 47.6303 80.7699 44.5035L81.0719 43.12C81.5866 40.7617 81.8462 38.355 81.8462 35.9412V32.6208C81.8462 30.8466 81.5323 29.0864 80.9192 27.4216L79.1894 22.725C78.872 21.863 78.9214 20.9085 79.3263 20.084V20.084C79.5992 19.5284 80.0198 19.0601 80.5379 18.7214C82.2771 17.5845 86.176 14.9526 85 14.9526C83.5 14.9526 74.5 14.6075 73.4359 14.9526C72.3718 15.2977 79.5 0.607563 77 2.10756C75.4686 3.0264 72.5036 6.03279 70.436 8.22445C68.9377 9.81259 67.0932 11.0396 65.0256 11.7414V11.7414L59.7692 12.8118L57.4789 13.5891C54.8375 14.4856 52.4434 15.9893 50.4889 17.9794V17.9794C49.6692 18.814 48.9337 19.7272 48.2929 20.7059L47.1538 22.4456L42.5 28.1075" stroke="#6FBDD6" stroke-width="3"/>
<path d="M46.2051 54.0653L47.5532 51.7776C48.7354 49.7713 49.3589 47.485 49.3589 45.1563V45.1563C49.3589 43.9651 49.1958 42.7795 48.8739 41.6326L47.8532 37.995C47.457 36.583 46.8794 35.2284 46.1349 33.9649V33.9649C44.7983 31.6968 42.9524 29.7707 40.743 28.3392L32.5384 23.023L17.8205 13.3892L10.1123 9.46499C9.65081 9.23002 9.14027 9.10754 8.62238 9.10754V9.10754C7.77846 9.10754 6.96693 9.43242 6.35615 10.0148L5.17132 11.1445C4.49907 11.7855 3.95399 12.5477 3.56474 13.391L3.44125 13.6586C3.1481 14.2937 2.93069 14.9611 2.7935 15.6471L2.5 17.1146L2.49029 17.1631C2.16423 18.7935 2 20.452 2 22.1146V22.1146V24.1146V26.1146V26.1146C2 27.4358 2.2521 28.7448 2.74278 29.9715L3 30.6146L4.15382 32.6568V32.6568C5.52486 34.7508 7.48452 36.3926 9.7863 37.3757L11.5 38.1075L14.5 39.1075M14.5 39.1075L14.8024 39.3668M14.5 39.1075L16.2666 39.6123C17.4152 39.9405 18.506 40.4449 19.5 41.1075V41.1075L24.2606 43.7523M24 43.6075L28.5 46.1075" stroke="#6FBDD6" stroke-width="3"/>
</svg>
