<svg width="14" height="15" viewBox="0 0 14 15" fill="none" xmlns="http://www.w3.org/2000/svg">
<path fill-rule="evenodd" clip-rule="evenodd" d="M0.583313 4.125C0.583313 3.1585 1.36681 2.375 2.33331 2.375H11.6666C12.6331 2.375 13.4166 3.1585 13.4166 4.125V11.125C13.4166 12.0915 12.6331 12.875 11.6666 12.875H2.33331C1.36682 12.875 0.583313 12.0915 0.583313 11.125V4.125ZM2.33331 3.54167C2.01115 3.54167 1.74998 3.80283 1.74998 4.125V4.96139L6.99998 8.11139L12.25 4.96139V4.125C12.25 3.80283 11.9888 3.54167 11.6666 3.54167H2.33331ZM12.25 6.32194L7.60023 9.1118C7.23076 9.33347 6.7692 9.33348 6.39973 9.1118L1.74998 6.32194V11.125C1.74998 11.4472 2.01115 11.7083 2.33331 11.7083H11.6666C11.9888 11.7083 12.25 11.4472 12.25 11.125V6.32194Z" fill="#353232" fill-opacity="0.75"/>
</svg>
