<svg width="432" height="269" viewBox="0 0 432 269" fill="none" xmlns="http://www.w3.org/2000/svg">
<g filter="url(#filter0_b_221_2121)">
<path fill-rule="evenodd" clip-rule="evenodd" d="M384.841 167.931C388.61 167.373 399.87 153.982 403.453 153.982C407.035 153.982 423.367 157.469 423.367 154.586C423.367 151.703 428.764 141.799 427.647 138.87C426.531 135.941 421.226 131.942 422.297 129.012C423.367 126.083 430.858 126.129 430.858 122.642C430.858 119.155 424.996 117.434 424.996 115.063C424.996 112.692 432.487 108.693 431.975 104.089C431.463 99.4862 424.996 98.8352 418.016 94.7899C411.037 90.7446 404.057 92.465 397.59 88.9777C391.122 85.4903 377.675 87.8152 377.675 85.4903C377.675 83.1654 369.114 75.6328 366.927 71.541C364.74 67.4492 357.622 69.8205 353.481 72.7034C351.869 74.2749 349.769 75.2509 347.528 75.4706C345.286 75.6903 343.037 75.1408 341.15 73.9124C336.823 70.983 333.101 66.3332 329.285 68.0536C325.47 69.774 318.537 68.6581 319.979 62.8459C321.422 57.0337 313 44.2468 309.232 42.5264C305.463 40.8059 294.156 43.6888 291.504 37.8766C288.852 32.0643 283.919 27.4146 286.106 23.3693C288.293 19.324 285.548 8.25747 282.849 3.60769C280.151 -1.0421 266.75 -0.43772 262.981 1.3292C259.213 3.09612 250.605 -0.437743 246.836 1.88715C243.067 4.21204 240.927 8.25747 235.529 8.25747C234.258 8.45872 232.955 8.28426 231.781 7.75557C230.607 7.22689 229.614 6.36695 228.923 5.28154C223.938 7.22689 218.678 8.37253 213.335 8.67594C213.335 8.67594 198.958 21.0444 198.958 25.6942C198.958 30.3439 198.26 38.0625 194.677 34.2032C191.095 30.3439 176.066 30.2974 172.436 32.6688C168.807 35.0402 163.13 23.3692 156.663 27.2285C150.195 31.0878 141.634 21.8348 140.89 25.6942C140.145 29.5535 130.839 26.4381 124.418 23.3693C117.997 20.3004 106.505 24.9501 102.177 19.5099C97.8502 14.0696 69.8863 14.0697 60.5805 14.0697C51.2747 14.0697 49.1346 19.5099 44.8074 24.1597C40.4802 28.8094 36.432 27.5076 31.8256 27.2751C31.976 30.3183 32.6693 33.3102 33.8729 36.1096C36.0133 39.597 46.2497 56.4292 43.551 61.6834C40.8524 66.9377 36.0134 66.8912 32.8029 70.983C29.5924 75.0748 10.748 93.0695 10.2361 95.9523C9.72432 98.8352 13.4469 111.622 10.7482 113.947C8.0495 116.272 0 128.454 0 133.104C0.596911 135.951 1.89127 138.605 3.76713 140.828C5.64299 143.052 8.04171 144.775 10.7482 145.845C12.4094 146.327 13.8238 147.425 14.703 148.913C17.7795 148.394 20.8896 148.099 24.0088 148.03C27.6381 148.03 43.4113 152.68 48.3899 152.68C53.5439 152.733 58.5593 154.355 62.7675 157.33C64.9078 159.654 69.8864 158.12 73.5157 154.261C77.1449 150.401 81.3791 152.726 85.7063 152.726C88.3893 152.457 90.9855 151.626 93.3263 150.289C95.6671 148.951 97.6999 147.136 99.2926 144.961C101.479 141.148 122.976 134.917 128.699 134.127C134.422 133.337 143.03 145.705 148.055 145.705C152.015 145.969 155.795 147.452 158.878 149.949C161.961 152.447 164.194 155.837 165.271 159.654C168.625 169.273 173.719 178.194 180.299 185.972C183.679 191.043 185.668 196.911 186.069 202.99C186.069 206.106 178.159 202.246 169.551 199.922C160.944 197.597 160.246 206.896 160.246 211.499C160.246 216.103 148.055 232.424 145.914 235.492C143.774 238.561 150.242 240.933 155.22 241.677C157.361 242.002 165.969 235.492 168.853 235.492C172.073 237.135 174.972 239.34 177.415 242.002C176.577 229.913 178.904 230.564 188.908 222.38C198.911 214.196 200.4 197.969 209.706 196.062C219.012 194.156 222.967 189.46 236.6 191.784C250.233 194.109 229.806 203.362 239.112 208.803C248.418 214.243 277.126 207.268 278.522 214.987C279.918 222.705 245.533 230.517 246.278 234.376C247.022 238.236 264.564 242.095 270.659 246.326C276.754 250.558 268.844 262.601 271.729 266.46C274.614 270.319 283.919 267.204 291.457 261.438C298.995 255.672 305.044 257.532 314.722 250.604C324.4 243.676 344.5 249.814 347.013 245.582C349.526 241.351 341.243 237.073 322.632 238.608C304.02 240.142 302.904 221.171 302.904 217.312C302.904 213.452 322.259 197.597 333.38 196.434C344.208 195.079 354.679 191.67 364.228 186.391C370.533 183.632 377.138 181.619 383.91 180.392C383.119 174.906 381.631 168.443 384.841 167.931Z" fill="black" fill-opacity="0.5"/>
</g>
<defs>
<filter id="filter0_b_221_2121" x="-24.8066" y="-24.7866" width="481.613" height="317.761" filterUnits="userSpaceOnUse" color-interpolation-filters="sRGB">
<feFlood flood-opacity="0" result="BackgroundImageFix"/>
<feGaussianBlur in="BackgroundImageFix" stdDeviation="12.4033"/>
<feComposite in2="SourceAlpha" operator="in" result="effect1_backgroundBlur_221_2121"/>
<feBlend mode="normal" in="SourceGraphic" in2="effect1_backgroundBlur_221_2121" result="shape"/>
</filter>
</defs>
</svg>
