<!-- <svg width="1116" height="692" viewBox="0 0 1116 692" fill="none" xmlns="http://www.w3.org/2000/svg">
<g filter="url(#filter0_b_210_3784)">
<path fill-rule="evenodd" clip-rule="evenodd" d="M993.603 433.299C1003.33 431.859 1032.38 397.31 1041.62 397.31C1050.86 397.31 1093 406.307 1093 398.87C1093 391.432 1106.92 365.88 1104.04 358.322C1101.16 350.765 1087.48 340.448 1090.24 332.89C1093 325.333 1112.33 325.452 1112.33 316.455C1112.33 307.458 1097.2 303.02 1097.2 296.902C1097.2 290.783 1116.53 280.467 1115.21 268.59C1113.89 256.714 1097.2 255.034 1079.19 244.598C1061.19 234.161 1043.18 238.6 1026.49 229.602C1009.81 220.605 975.116 226.603 975.116 220.605C975.116 214.607 953.027 195.173 947.385 184.616C941.743 174.06 923.378 180.178 912.694 187.615C908.535 191.67 903.118 194.188 897.336 194.755C891.553 195.322 885.751 193.904 880.883 190.735C869.719 183.177 860.115 171.181 850.271 175.619C840.428 180.058 822.541 177.179 826.263 162.183C829.984 147.188 808.257 114.199 798.533 109.76C788.81 105.321 759.639 112.759 752.796 97.7636C745.954 82.7683 733.229 70.7721 738.871 60.3354C744.513 49.8986 737.431 21.3475 730.469 9.35126C723.506 -2.645 688.934 -1.08573 679.21 3.47284C669.487 8.03142 647.279 -1.08579 637.556 4.91234C627.832 10.9105 622.31 21.3475 608.385 21.3475C605.104 21.8667 601.743 21.4166 598.715 20.0526C595.686 18.6886 593.123 16.47 591.339 13.6697C578.48 18.6886 564.908 21.6444 551.125 22.4271C551.125 22.4271 514.031 54.3372 514.031 66.3335C514.031 78.3297 512.231 98.2434 502.988 88.2865C493.745 78.3296 454.971 78.2098 445.607 84.3279C436.244 90.446 421.599 60.3352 404.913 70.2921C388.227 80.249 366.139 56.3766 364.218 66.3335C362.297 76.2904 338.289 68.2529 321.723 60.3354C305.157 52.4178 275.506 64.4139 264.342 50.3783C253.178 36.3426 181.033 36.3428 157.024 36.3428C133.016 36.3428 127.494 50.3783 116.33 62.3745C105.166 74.3708 94.722 71.012 82.8377 70.4122C83.2256 78.2636 85.0144 85.9825 88.1196 93.205C93.6416 102.202 120.051 145.629 113.089 159.184C106.126 172.74 93.6418 172.62 85.3589 183.177C77.0759 193.734 28.4582 240.159 27.1377 247.597C25.8172 255.034 35.4212 288.024 28.4587 294.022C21.4963 300.02 0.728882 331.451 0.728882 343.447C2.26889 350.791 5.60828 357.638 10.4479 363.375C15.2876 369.111 21.4761 373.558 28.4587 376.317C32.7447 377.561 36.3937 380.393 38.6621 384.234C46.5992 382.895 54.6231 382.133 62.6706 381.955C72.034 381.955 112.728 393.951 125.573 393.951C138.87 394.09 151.809 398.274 162.666 405.948C168.188 411.946 181.033 407.987 190.396 398.03C199.76 388.073 210.683 394.071 221.847 394.071C228.77 393.376 235.468 391.234 241.507 387.782C247.546 384.331 252.791 379.648 256.9 374.037C262.542 364.201 318.002 348.125 332.767 346.086C347.532 344.047 369.74 375.957 382.705 375.957C392.921 376.638 402.675 380.463 410.628 386.907C418.58 393.351 424.342 402.098 427.12 411.946C435.774 436.761 448.916 459.776 465.894 479.845C474.613 492.927 479.746 508.066 480.779 523.75C480.779 531.788 460.373 521.831 438.165 515.833C415.957 509.835 414.156 533.828 414.156 545.704C414.156 557.58 382.704 599.687 377.182 607.605C371.66 615.522 388.346 621.64 401.191 623.559C406.713 624.399 428.921 607.605 436.364 607.605C444.669 611.843 452.149 617.531 458.451 624.399C456.291 593.209 462.294 594.888 488.103 573.775C513.912 552.662 517.753 510.795 541.762 505.876C565.77 500.958 575.974 488.842 611.147 494.84C646.319 500.838 593.62 524.71 617.628 538.746C641.637 552.781 715.703 534.787 719.304 554.701C722.905 574.615 634.194 594.768 636.115 604.725C638.036 614.682 683.292 624.639 699.018 635.556C714.743 646.472 694.336 677.543 701.778 687.5C709.221 697.457 733.229 689.419 752.676 674.544C772.123 659.668 787.729 664.467 812.698 646.592C837.667 628.718 889.526 644.553 896.008 633.636C902.49 622.72 881.123 611.683 833.106 615.642C785.089 619.601 782.208 570.656 782.208 560.699C782.208 550.742 832.145 509.835 860.835 506.836C888.773 503.339 915.785 494.544 940.423 480.924C956.689 473.808 973.73 468.614 991.201 465.449C989.16 451.293 985.32 434.619 993.603 433.299Z" fill="black" fill-opacity="0.5"/>
</g>
<defs>
<filter id="filter0_b_210_3784" x="-63.2711" y="-63.9048" width="1242.54" height="819.81" filterUnits="userSpaceOnUse" color-interpolation-filters="sRGB">
<feFlood flood-opacity="0" result="BackgroundImageFix"/>
<feGaussianBlur in="BackgroundImageFix" stdDeviation="32"/>
<feComposite in2="SourceAlpha" operator="in" result="effect1_backgroundBlur_210_3784"/>
<feBlend mode="normal" in="SourceGraphic" in2="effect1_backgroundBlur_210_3784" result="shape"/>
</filter>
</defs>
</svg> -->


<svg aria-hidden="true" style="position: absolute; width: 1000; height: 1000; overflow: hidden;" version="1.1" xmlns="http://www.w3.org/2000/svg" xmlns:xlink="http://www.w3.org/1999/xlink">
<defs>



<symbol id="new-right" viewBox="0 0 1116 692">
<path  d="M993.603 433.299C1003.33 431.859 1032.38 397.31 1041.62 397.31C1050.86 397.31 1093 406.307 1093 398.87C1093 391.432 1106.92 365.88 1104.04 358.322C1101.16 350.765 1087.48 340.448 1090.24 332.89C1093 325.333 1112.33 325.452 1112.33 316.455C1112.33 307.458 1097.2 303.02 1097.2 296.902C1097.2 290.783 1116.53 280.467 1115.21 268.59C1113.89 256.714 1097.2 255.034 1079.19 244.598C1061.19 234.161 1043.18 238.6 1026.49 229.602C1009.81 220.605 975.116 226.603 975.116 220.605C975.116 214.607 953.027 195.173 947.385 184.616C941.743 174.06 923.378 180.178 912.694 187.615C908.535 191.67 903.118 194.188 897.336 194.755C891.553 195.322 885.751 193.904 880.883 190.735C869.719 183.177 860.115 171.181 850.271 175.619C840.428 180.058 822.541 177.179 826.263 162.183C829.984 147.188 808.257 114.199 798.533 109.76C788.81 105.321 759.639 112.759 752.796 97.7636C745.954 82.7683 733.229 70.7721 738.871 60.3354C744.513 49.8986 737.431 21.3475 730.469 9.35126C723.506 -2.645 688.934 -1.08573 679.21 3.47284C669.487 8.03142 647.279 -1.08579 637.556 4.91234C627.832 10.9105 622.31 21.3475 608.385 21.3475C605.104 21.8667 601.743 21.4166 598.715 20.0526C595.686 18.6886 593.123 16.47 591.339 13.6697C578.48 18.6886 564.908 21.6444 551.125 22.4271C551.125 22.4271 514.031 54.3372 514.031 66.3335C514.031 78.3297 512.231 98.2434 502.988 88.2865C493.745 78.3296 454.971 78.2098 445.607 84.3279C436.244 90.446 421.599 60.3352 404.913 70.2921C388.227 80.249 366.139 56.3766 364.218 66.3335C362.297 76.2904 338.289 68.2529 321.723 60.3354C305.157 52.4178 275.506 64.4139 264.342 50.3783C253.178 36.3426 181.033 36.3428 157.024 36.3428C133.016 36.3428 127.494 50.3783 116.33 62.3745C105.166 74.3708 94.722 71.012 82.8377 70.4122C83.2256 78.2636 85.0144 85.9825 88.1196 93.205C93.6416 102.202 120.051 145.629 113.089 159.184C106.126 172.74 93.6418 172.62 85.3589 183.177C77.0759 193.734 28.4582 240.159 27.1377 247.597C25.8172 255.034 35.4212 288.024 28.4587 294.022C21.4963 300.02 0.728882 331.451 0.728882 343.447C2.26889 350.791 5.60828 357.638 10.4479 363.375C15.2876 369.111 21.4761 373.558 28.4587 376.317C32.7447 377.561 36.3937 380.393 38.6621 384.234C46.5992 382.895 54.6231 382.133 62.6706 381.955C72.034 381.955 112.728 393.951 125.573 393.951C138.87 394.09 151.809 398.274 162.666 405.948C168.188 411.946 181.033 407.987 190.396 398.03C199.76 388.073 210.683 394.071 221.847 394.071C228.77 393.376 235.468 391.234 241.507 387.782C247.546 384.331 252.791 379.648 256.9 374.037C262.542 364.201 318.002 348.125 332.767 346.086C347.532 344.047 369.74 375.957 382.705 375.957C392.921 376.638 402.675 380.463 410.628 386.907C418.58 393.351 424.342 402.098 427.12 411.946C435.774 436.761 448.916 459.776 465.894 479.845C474.613 492.927 479.746 508.066 480.779 523.75C480.779 531.788 460.373 521.831 438.165 515.833C415.957 509.835 414.156 533.828 414.156 545.704C414.156 557.58 382.704 599.687 377.182 607.605C371.66 615.522 388.346 621.64 401.191 623.559C406.713 624.399 428.921 607.605 436.364 607.605C444.669 611.843 452.149 617.531 458.451 624.399C456.291 593.209 462.294 594.888 488.103 573.775C513.912 552.662 517.753 510.795 541.762 505.876C565.77 500.958 575.974 488.842 611.147 494.84C646.319 500.838 593.62 524.71 617.628 538.746C641.637 552.781 715.703 534.787 719.304 554.701C722.905 574.615 634.194 594.768 636.115 604.725C638.036 614.682 683.292 624.639 699.018 635.556C714.743 646.472 694.336 677.543 701.778 687.5C709.221 697.457 733.229 689.419 752.676 674.544C772.123 659.668 787.729 664.467 812.698 646.592C837.667 628.718 889.526 644.553 896.008 633.636C902.49 622.72 881.123 611.683 833.106 615.642C785.089 619.601 782.208 570.656 782.208 560.699C782.208 550.742 832.145 509.835 860.835 506.836C888.773 503.339 915.785 494.544 940.423 480.924C956.689 473.808 973.73 468.614 991.201 465.449C989.16 451.293 985.32 434.619 993.603 433.299Z"></path>
</symbol>

<!-- <symbol id="new-left" viewBox="0 0 47 32">
<path d="M30.082 8.837v5.69l8.407-0.254v-6.474l-8.407 1.038zM30.082 17.447v-2.329l8.407-0.194v8.7l-8.407-1.564v-1.72l0.569-0.138v-2.67l-0.206-0.115-0.363 0.031z"></path>
</symbol> -->

</defs>
</svg>
