<svg xmlns="http://www.w3.org/2000/svg" width="32" height="32" id="medical"><path d="M16 2c-.572 0-1.144.195-1.607.584-.72.604-.875 1.533-.69 2.416H11.5a.5.5 0 0 0-.5.5V6H8c-1.1 0-2 .9-2 2v21c0 1.1.9 2 2 2h16c1.1 0 2-.9 2-2V8c0-1.1-.9-2-2-2h-3v-.5a.5.5 0 0 0-.5-.5h-2.203c.185-.883.03-1.812-.69-2.416A2.497 2.497 0 0 0 16 2zm0 .998c.342 0 .685.117.965.352.56.47.7 1.267.334 1.9a.5.5 0 0 0 .433.75H20v.418a.5.5 0 0 0 0 .164v1.836a.5.5 0 0 0 0 .164V9h-8v-.422a.5.5 0 0 0 0-.16v-1.84a.5.5 0 0 0 0-.16V6h2.268a.5.5 0 0 0 .433-.75 1.496 1.496 0 0 1 .334-1.9c.28-.235.623-.352.965-.352zm0 1a.5.5 0 0 0-.5.5.5.5 0 0 0 .5.5.5.5 0 0 0 .5-.5.5.5 0 0 0-.5-.5zM8 7h3v1H9.5C8.678 8 8 8.678 8 9.5v18c0 .822.678 1.5 1.5 1.5h13c.822 0 1.5-.678 1.5-1.5v-18c0-.822-.678-1.5-1.5-1.5H21V7h3c.563 0 1 .437 1 1v21c0 .563-.437 1-1 1H8c-.563 0-1-.437-1-1V8c0-.563.437-1 1-1zm1.5 2H11v.5a.5.5 0 0 0 .5.5h9a.5.5 0 0 0 .5-.5V9h1.5c.286 0 .5.214.5.5v18c0 .286-.214.5-.5.5h-13a.488.488 0 0 1-.5-.5v-18c0-.286.214-.5.5-.5zm.957 3a.5.5 0 0 0 .05 1h.985a.5.5 0 1 0 0-1h-.984a.5.5 0 0 0-.051 0zm2.998 0a.5.5 0 0 0 .05 1h4.987a.5.5 0 1 0 0-1h-4.986a.5.5 0 0 0-.05 0zm-2.998 3a.5.5 0 0 0 .05 1h.985a.5.5 0 1 0 0-1h-.984a.5.5 0 0 0-.051 0zm2.998 0a.5.5 0 0 0 .05 1h4.987a.5.5 0 1 0 0-1h-4.986a.5.5 0 0 0-.05 0zm-2.998 3a.5.5 0 0 0 .05 1h.985a.5.5 0 1 0 0-1h-.984a.5.5 0 0 0-.051 0zm2.998 0a.5.5 0 0 0 .05 1h4.987a.5.5 0 1 0 0-1h-4.986a.5.5 0 0 0-.05 0zm3.045 5c-.294 0-.506.136-.67.27a2.456 2.456 0 0 0-.402.43c-.22.289-.364.57-.364.57a.5.5 0 0 0 .887.462s.116-.22.276-.43c.075-.098.157-.186.222-.241.03.048.053.085.096.168.065.126.139.282.275.44.137.16.388.331.68.331.292 0 .543-.171.68-.33.136-.16.21-.315.275-.441.02-.04.027-.047.045-.079.018.032.025.04.045.079.065.126.139.282.275.44.137.16.388.331.68.331.292 0 .543-.171.68-.33.136-.16.21-.315.275-.441.044-.085.069-.123.098-.17.067.056.154.145.232.246.163.21.281.431.281.431a.5.5 0 1 0 .881-.47s-.148-.281-.37-.57a2.475 2.475 0 0 0-.407-.428c-.165-.133-.375-.268-.67-.268-.294 0-.542.182-.672.34-.13.158-.198.308-.262.431-.029.056-.042.072-.066.114-.024-.041-.037-.057-.066-.114-.064-.123-.133-.273-.262-.431-.13-.158-.377-.34-.672-.34-.295 0-.543.182-.672.34-.13.158-.198.308-.262.431-.029.056-.042.072-.066.114-.024-.041-.037-.057-.066-.114-.064-.123-.133-.273-.262-.431-.13-.158-.377-.34-.672-.34zm-1.043 3a.5.5 0 0 0 .05 1h6a.5.5 0 1 0 0-1h-6a.5.5 0 0 0-.05 0z" color="#000" font-family="sans-serif" font-weight="400" overflow="visible" style="line-height:normal;text-indent:0;text-align:start;text-decoration-line:none;text-decoration-style:solid;text-decoration-color:#000;text-transform:none;block-progression:tb;white-space:normal;isolation:auto;mix-blend-mode:normal;solid-color:#000;solid-opacity:1"></path></svg>